<svg width="121" height="53" viewBox="0 0 121 53" fill="none" xmlns="http://www.w3.org/2000/svg">
<g clip-path="url(#clip0_16349_263)">
<path d="M63.5248 44.1014C63.5248 44.5623 63.3598 44.9578 63.0299 45.2877C62.7 45.6176 62.3046 45.7825 61.8437 45.7825H60.165V33.7262C60.165 31.4217 60.8394 29.8497 62.1906 29.0104C63.5394 28.1711 65.0046 27.7514 66.5862 27.7514C67.4085 27.7514 68.2406 27.9091 69.0799 28.2196C69.9193 28.5325 70.5864 28.9861 71.0812 29.578C72.0685 30.8613 72.5634 32.5084 72.5634 34.517C72.5634 36.5256 72.0685 38.2698 71.0812 39.5554C70.0939 40.8072 68.8252 41.433 67.2775 41.433C66.4552 41.433 65.7299 41.2851 65.104 40.9891C64.4442 40.6592 63.9178 40.1498 63.5224 39.4584V44.1063L63.5248 44.1014ZM69.1551 34.6626C69.1551 33.3793 68.9077 32.3896 68.4153 31.6982C67.9204 31.0068 67.2121 30.66 66.2927 30.66C65.3733 30.66 64.7135 31.0068 64.2186 31.6982C63.7577 32.3241 63.5272 33.3114 63.5272 34.6626C63.5272 35.9143 63.7747 36.8531 64.2671 37.4789C64.762 38.1703 65.4679 38.5172 66.3897 38.5172C67.246 38.5172 67.9204 38.1703 68.4153 37.4789C68.9101 36.7876 69.1551 35.8488 69.1551 34.6626Z" fill="white"/>
<path d="M73.5676 24.1927H75.3458C75.8067 24.1927 76.2021 24.3504 76.532 24.6609C76.8595 24.9738 77.0269 25.362 77.0269 25.8205V41.1808H73.5701V24.1903L73.5676 24.1927Z" fill="white"/>
<path d="M86.7618 40.6398C86.0704 41.0037 85.3378 41.2244 84.564 41.3069C83.7901 41.3894 83.1061 41.4306 82.5142 41.4306C81.3279 41.4306 80.2921 41.1104 79.4018 40.4676C78.514 39.8247 78.0676 38.7646 78.0676 37.2825C78.0676 35.8997 78.4703 34.9124 79.2781 34.3181C80.0835 33.7262 81.1145 33.3308 82.3638 33.1319C82.5287 33.1319 82.7252 33.1076 82.9557 33.0567C83.1861 33.0082 83.4505 32.9669 83.7465 32.933C85.1947 32.7365 85.92 32.3071 85.92 31.6497C85.92 31.1548 85.6653 30.8346 85.1535 30.6866C84.6416 30.5387 84.1734 30.4635 83.7465 30.4635C83.2856 30.4635 82.8732 30.529 82.5117 30.66C82.1479 30.791 81.8859 31.0384 81.7209 31.3998H78.4121C78.5431 30.3786 79.004 29.5392 79.7948 28.8818C80.6851 28.125 81.9514 27.7466 83.5985 27.7466C85.4421 27.7466 86.8248 28.0595 87.7467 28.6853C88.7024 29.3452 89.1779 30.267 89.1779 31.4508V35.9458C89.1779 37.2631 88.9377 38.2916 88.4623 39.0339C87.9844 39.7738 87.4167 40.3099 86.7593 40.6398H86.7618ZM85.971 34.5655C85.51 34.796 84.8672 35.0095 84.0448 35.2084L82.9096 35.4558C82.3177 35.6208 81.8883 35.8342 81.6263 36.0987C81.3959 36.4625 81.2818 36.824 81.2818 37.1854C81.2818 37.6803 81.4298 38.0733 81.7258 38.3717C82.0217 38.6361 82.4487 38.7671 83.009 38.7671C83.9308 38.7671 84.6562 38.5051 85.1826 37.9762C85.709 37.4498 85.9734 36.7245 85.9734 35.8027V34.568L85.971 34.5655Z" fill="white"/>
<path d="M101.639 41.1832H99.9097C99.4148 41.1832 99.0121 41.0279 98.6992 40.715C98.3863 40.4021 98.231 39.9994 98.231 39.5045V32.7874C98.231 31.9966 97.9908 31.4217 97.5154 31.0578C97.0375 30.6964 96.5038 30.5144 95.9095 30.5144C95.3152 30.5144 94.7888 30.6964 94.3303 31.0578C93.8694 31.4217 93.6389 31.9966 93.6389 32.7874V41.1832H90.1821V33.4788C90.1821 31.2397 90.7667 29.743 91.936 28.9837C93.1052 28.2269 94.3982 27.8145 95.8125 27.749C97.2607 27.749 98.5949 28.1274 99.8126 28.8843C101.03 29.6411 101.639 31.1742 101.639 33.4763V41.1808V41.1832Z" fill="white"/>
<path d="M111.825 37.1321H114.295C113.931 38.5148 113.24 39.57 112.221 40.2929C111.2 41.0498 109.916 41.4282 108.369 41.4282C106.491 41.4282 105.026 40.8193 103.973 39.6015C102.918 38.4153 102.391 36.7197 102.391 34.5146C102.391 32.3095 102.901 30.7618 103.922 29.5756C104.975 28.3579 106.44 27.749 108.318 27.749C110.292 27.749 111.825 28.3409 112.912 29.5271C113.965 30.7449 114.491 32.4405 114.491 34.6141V35.1574C114.491 35.3224 114.474 35.4364 114.443 35.5019H105.899C105.931 36.5232 106.178 37.28 106.639 37.7749C107.066 38.3013 107.709 38.5657 108.565 38.5657C109.125 38.5657 109.603 38.4517 109.996 38.2213C110.096 38.1897 110.186 38.1315 110.268 38.049C110.35 37.9665 110.44 37.8768 110.54 37.7773C110.571 37.6779 110.695 37.5469 110.911 37.3819C111.124 37.217 111.43 37.1345 111.825 37.1345V37.1321ZM105.899 33.2799H110.938C110.872 32.3896 110.642 31.7322 110.246 31.3052C109.817 30.8443 109.208 30.6139 108.42 30.6139C107.694 30.6139 107.102 30.8443 106.641 31.3052C106.18 31.7661 105.933 32.426 105.902 33.2799H105.899Z" fill="white"/>
<path d="M120.886 41.1832C119.799 41.2487 118.622 41.2317 117.354 41.1347C116.085 41.0352 115.452 40.2298 115.452 38.7137V24.1927H117.23C117.657 24.1927 118.038 24.3577 118.365 24.6876C118.693 25.0175 118.86 25.4129 118.86 25.8738V28.0959H120.886V28.7872C120.886 29.2821 120.721 29.6848 120.391 29.9977C120.061 30.3106 119.666 30.4659 119.205 30.4659H118.858V37.7749C118.858 38.3353 119.188 38.6142 119.845 38.6142H120.883V41.1832H120.886Z" fill="white"/>
<path d="M67.9307 44.919C67.7779 44.7758 67.5644 44.7031 67.2903 44.7031C67.0938 44.7031 66.9216 44.7443 66.776 44.8268C66.6305 44.9092 66.5043 45.0184 66.4073 45.1543C66.3103 45.2901 66.2351 45.4429 66.1841 45.6152C66.1332 45.7874 66.1089 45.9621 66.1089 46.1416C66.1089 46.3211 66.1332 46.4957 66.1841 46.668C66.2351 46.8402 66.3078 46.993 66.4073 47.1289C66.5043 47.2647 66.628 47.3715 66.776 47.4539C66.924 47.5364 67.0962 47.5777 67.2903 47.5777C67.4164 47.5777 67.5353 47.5534 67.6493 47.5049C67.7633 47.4564 67.8628 47.3909 67.9501 47.306C68.0374 47.2211 68.1102 47.1192 68.166 47.0027C68.2218 46.8863 68.2582 46.7577 68.2703 46.617H68.6803C68.6245 47.027 68.4741 47.3448 68.2291 47.5728C67.9865 47.8008 67.6712 47.9148 67.2903 47.9148C67.0332 47.9148 66.8051 47.8688 66.6086 47.7741C66.4097 47.682 66.2448 47.5534 66.1089 47.3933C65.9731 47.2332 65.8712 47.044 65.8008 46.8281C65.7305 46.6122 65.6965 46.3841 65.6965 46.1391C65.6965 45.8941 65.7305 45.6661 65.8008 45.4502C65.8712 45.2343 65.9731 45.0475 66.1089 44.885C66.2423 44.7249 66.4097 44.5963 66.6086 44.4993C66.8076 44.4047 67.0332 44.3562 67.2903 44.3562C67.6517 44.3562 67.9574 44.4508 68.2073 44.6424C68.4571 44.834 68.6075 45.1227 68.6536 45.5109H68.2412C68.1854 45.2586 68.0811 45.0597 67.9283 44.9165L67.9307 44.919Z" fill="white"/>
<path d="M70.9411 44.4556V45.2464H70.9533C71.0576 44.9723 71.2201 44.7613 71.4384 44.6133C71.6592 44.4653 71.9212 44.3974 72.2244 44.412V44.8219C72.0376 44.8122 71.8678 44.8389 71.715 44.8971C71.5622 44.9553 71.4312 45.0402 71.3196 45.1494C71.208 45.2586 71.1231 45.3871 71.0624 45.5375C71.0018 45.6879 70.9703 45.8529 70.9703 46.03V47.8251H70.5579V44.458H70.9363L70.9411 44.4556Z" fill="white"/>
<path d="M74.1095 46.7116C74.1508 46.8693 74.2163 47.0124 74.3084 47.1386C74.4006 47.2647 74.5146 47.369 74.6553 47.4515C74.7936 47.534 74.961 47.5752 75.1575 47.5752C75.4583 47.5752 75.6936 47.4976 75.8634 47.3399C76.0332 47.1822 76.1496 46.9736 76.2151 46.7141H76.6275C76.5402 47.0973 76.3801 47.3933 76.1472 47.6019C75.9143 47.8105 75.5844 47.9148 75.1575 47.9148C74.8931 47.9148 74.6626 47.8687 74.4685 47.7741C74.2745 47.682 74.1168 47.5534 73.9955 47.3884C73.8742 47.2259 73.782 47.0367 73.7238 46.8208C73.6656 46.6049 73.6365 46.3769 73.6365 46.1391C73.6365 45.9184 73.6656 45.7001 73.7238 45.4866C73.782 45.2731 73.8718 45.0839 73.9955 44.9165C74.1168 44.7491 74.2745 44.6133 74.4685 44.5114C74.6626 44.4095 74.8906 44.3586 75.1575 44.3586C75.4243 44.3586 75.6572 44.4119 75.8488 44.5211C76.0405 44.6303 76.1957 44.7734 76.3146 44.9481C76.4334 45.1251 76.5208 45.3265 76.5717 45.5545C76.6251 45.7825 76.6469 46.0154 76.6372 46.2507H74.0464C74.0464 46.3987 74.0658 46.5515 74.1071 46.7116H74.1095ZM76.1472 45.4551C76.0963 45.3119 76.0259 45.1834 75.9362 45.0742C75.844 44.9626 75.7348 44.8753 75.6038 44.8074C75.4728 44.7394 75.3248 44.7055 75.1599 44.7055C74.9949 44.7055 74.8397 44.7394 74.7087 44.8074C74.5777 44.8753 74.4661 44.965 74.3764 45.0742C74.2842 45.1858 74.2114 45.3144 74.158 45.4599C74.1047 45.6055 74.0683 45.7534 74.0513 45.9063H76.2321C76.2273 45.7486 76.2006 45.5982 76.1496 45.4551H76.1472Z" fill="white"/>
<path d="M78.5825 44.9796C78.6529 44.8365 78.7475 44.7176 78.8663 44.6278C78.9852 44.5357 79.1259 44.4702 79.2884 44.4265C79.4485 44.3828 79.628 44.361 79.8245 44.361C79.9725 44.361 80.1205 44.3756 80.2685 44.4022C80.4164 44.4314 80.5499 44.4847 80.6663 44.5624C80.7827 44.64 80.8798 44.7516 80.9525 44.8923C81.0253 45.033 81.0641 45.2173 81.0641 45.4429V47.2308C81.0641 47.3957 81.1442 47.4782 81.3067 47.4782C81.3552 47.4782 81.3989 47.4685 81.4377 47.4515V47.7984C81.3892 47.8081 81.348 47.813 81.3116 47.8178C81.2752 47.8227 81.2267 47.8251 81.1709 47.8251C81.0666 47.8251 80.9817 47.8105 80.9186 47.7838C80.8555 47.7547 80.807 47.7159 80.7706 47.6626C80.7366 47.6116 80.7124 47.5485 80.7027 47.4758C80.693 47.403 80.6857 47.3254 80.6857 47.238H80.6736C80.6008 47.3472 80.5256 47.4442 80.448 47.5291C80.3728 47.614 80.2879 47.6844 80.1933 47.7402C80.0987 47.796 79.9943 47.8396 79.8731 47.8712C79.7518 47.9003 79.6111 47.9173 79.4461 47.9173C79.2812 47.9173 79.1429 47.8979 79.0046 47.8615C78.8663 47.8251 78.7475 47.7669 78.6456 47.6844C78.5437 47.6043 78.4637 47.5024 78.403 47.3787C78.3448 47.255 78.3157 47.107 78.3157 46.9372C78.3157 46.7019 78.3666 46.5176 78.4734 46.3866C78.5777 46.2532 78.7159 46.1537 78.8882 46.0833C79.0604 46.013 79.2545 45.9645 79.4679 45.9354C79.6838 45.9063 79.9022 45.8796 80.1229 45.8529C80.2102 45.8432 80.2854 45.8335 80.3509 45.8214C80.4164 45.8092 80.4698 45.785 80.5135 45.7534C80.5571 45.7219 80.5911 45.6758 80.6154 45.62C80.6396 45.5642 80.6517 45.489 80.6517 45.3968C80.6517 45.2586 80.6299 45.1445 80.5838 45.0548C80.5377 44.965 80.4747 44.8947 80.3946 44.8437C80.3146 44.7928 80.2199 44.7564 80.1132 44.737C80.0065 44.7176 79.8925 44.7079 79.7712 44.7079C79.5092 44.7079 79.2957 44.7685 79.1308 44.8947C78.9658 45.0184 78.8785 45.2173 78.8688 45.4914H78.4564C78.4685 45.295 78.5097 45.1251 78.5801 44.982L78.5825 44.9796ZM80.6396 45.9839C80.6129 46.0324 80.5644 46.0664 80.4892 46.0882C80.4164 46.11 80.3509 46.1246 80.2927 46.1343C80.1181 46.1658 79.9385 46.1925 79.7542 46.2168C79.5698 46.241 79.4 46.2774 79.2472 46.3235C79.0944 46.372 78.9706 46.4399 78.8712 46.5297C78.7742 46.6194 78.7232 46.7456 78.7232 46.9105C78.7232 47.0149 78.7426 47.107 78.7863 47.1871C78.8275 47.2671 78.8833 47.3375 78.9537 47.3957C79.024 47.4539 79.1041 47.5 79.1962 47.5291C79.2884 47.5607 79.3806 47.5752 79.4776 47.5752C79.6353 47.5752 79.7833 47.551 79.9288 47.5025C80.072 47.4539 80.1981 47.386 80.3049 47.2938C80.4116 47.2016 80.4965 47.0925 80.5596 46.9615C80.6226 46.8305 80.6542 46.6825 80.6542 46.5176V45.9815H80.642L80.6396 45.9839Z" fill="white"/>
<path d="M84.5307 44.4556V44.8025H83.8466V47.0731C83.8466 47.2089 83.866 47.3132 83.9024 47.3909C83.9388 47.4661 84.031 47.5097 84.1789 47.5194C84.2954 47.5194 84.4142 47.5122 84.5307 47.5V47.8469C84.47 47.8469 84.4094 47.8469 84.3488 47.8542C84.2881 47.859 84.2275 47.8615 84.1668 47.8615C83.8927 47.8615 83.7011 47.8081 83.5919 47.7014C83.4827 47.5946 83.4318 47.3981 83.4342 47.1095V44.8049H82.8472V44.458H83.4342V43.4465H83.8466V44.458H84.5307V44.4556Z" fill="white"/>
<path d="M86.8477 43.1626V43.8225H86.4353V43.1626H86.8477ZM86.8477 44.4556V47.8226H86.4353V44.4556H86.8477Z" fill="white"/>
<path d="M89.021 44.4556L90.0787 47.4127H90.0908L91.1363 44.4556H91.5608L90.3018 47.8227H89.8652L88.5649 44.4556H89.021Z" fill="white"/>
<path d="M93.5741 46.7116C93.6153 46.8693 93.6808 47.0124 93.773 47.1386C93.8652 47.2647 93.9792 47.369 94.1199 47.4515C94.2582 47.534 94.4256 47.5752 94.622 47.5752C94.9229 47.5752 95.1582 47.4976 95.328 47.3399C95.4978 47.1822 95.6142 46.9736 95.6797 46.7141H96.0897C96.0023 47.0973 95.8422 47.3933 95.6094 47.6019C95.3765 47.8105 95.0466 47.9148 94.6196 47.9148C94.3552 47.9148 94.1248 47.8687 93.9307 47.7741C93.7366 47.682 93.5789 47.5534 93.4577 47.3884C93.3364 47.2259 93.2466 47.0367 93.186 46.8208C93.1277 46.6049 93.0986 46.3769 93.0986 46.1391C93.0986 45.9184 93.1277 45.7001 93.186 45.4866C93.2442 45.2731 93.3339 45.0839 93.4577 44.9165C93.5789 44.7491 93.7366 44.6133 93.9307 44.5114C94.1248 44.4095 94.3528 44.3586 94.6196 44.3586C94.8865 44.3586 95.1193 44.4119 95.311 44.5211C95.5026 44.6303 95.6579 44.7734 95.7767 44.9481C95.8956 45.1251 95.9829 45.3265 96.0339 45.5545C96.0848 45.7825 96.1067 46.0154 96.0994 46.2507H93.5086C93.5086 46.3987 93.528 46.5515 93.5692 46.7116H93.5741ZM95.6118 45.4551C95.5608 45.3119 95.4905 45.1834 95.4007 45.0742C95.3086 44.9626 95.1994 44.8753 95.0684 44.8074C94.9374 44.7394 94.7894 44.7055 94.6245 44.7055C94.4595 44.7055 94.3043 44.7394 94.1733 44.8074C94.0423 44.8753 93.9307 44.965 93.8409 45.0742C93.7488 45.1858 93.676 45.3144 93.6226 45.4599C93.5692 45.6055 93.5329 45.7534 93.5159 45.9063H95.6967C95.6918 45.7486 95.6652 45.5982 95.6142 45.4551H95.6118Z" fill="white"/>
<path d="M101.181 44.4556L102.043 47.3399H102.055L102.877 44.4556H103.34L104.163 47.3399H104.175L105.036 44.4556H105.473L104.388 47.8227H103.937L103.108 44.9893H103.095L102.273 47.8227H101.822L100.738 44.4556H101.174H101.181Z" fill="white"/>
<path d="M109.333 44.5017C109.531 44.5963 109.696 44.7249 109.832 44.8874C109.968 45.0475 110.07 45.2367 110.14 45.4526C110.211 45.6685 110.245 45.8966 110.245 46.1416C110.245 46.3866 110.211 46.6146 110.14 46.8305C110.07 47.0464 109.968 47.2332 109.832 47.3957C109.696 47.5558 109.531 47.6844 109.333 47.7766C109.134 47.8712 108.908 47.9173 108.651 47.9173C108.394 47.9173 108.168 47.8712 107.969 47.7766C107.77 47.6844 107.605 47.5558 107.47 47.3957C107.334 47.2356 107.232 47.0464 107.161 46.8305C107.091 46.6146 107.057 46.3866 107.057 46.1416C107.057 45.8966 107.091 45.6685 107.161 45.4526C107.232 45.2367 107.334 45.0499 107.47 44.8874C107.603 44.7273 107.77 44.5987 107.969 44.5017C108.168 44.4071 108.394 44.3586 108.651 44.3586C108.908 44.3586 109.136 44.4071 109.333 44.5017ZM108.134 44.8292C107.986 44.9117 107.862 45.0208 107.765 45.1567C107.668 45.2925 107.593 45.4454 107.545 45.6176C107.494 45.7898 107.47 45.9645 107.47 46.144C107.47 46.3235 107.494 46.4982 107.545 46.6704C107.596 46.8426 107.668 46.9954 107.765 47.1313C107.862 47.2671 107.986 47.3739 108.134 47.4564C108.282 47.5388 108.454 47.5801 108.648 47.5801C108.843 47.5801 109.017 47.5388 109.165 47.4564C109.313 47.3739 109.437 47.2647 109.534 47.1313C109.631 46.9954 109.706 46.8426 109.755 46.6704C109.806 46.4982 109.83 46.3235 109.83 46.144C109.83 45.9645 109.806 45.7898 109.755 45.6176C109.704 45.4454 109.631 45.2925 109.534 45.1567C109.437 45.0208 109.313 44.9141 109.165 44.8292C109.017 44.7467 108.845 44.7055 108.648 44.7055C108.452 44.7055 108.28 44.7467 108.134 44.8292Z" fill="white"/>
<path d="M112.539 44.4556V45.2464H112.551C112.655 44.9723 112.818 44.7613 113.036 44.6133C113.257 44.4653 113.519 44.3974 113.822 44.412V44.8219C113.636 44.8122 113.466 44.8389 113.313 44.8971C113.16 44.9553 113.029 45.0402 112.917 45.1494C112.806 45.2586 112.721 45.3871 112.66 45.5375C112.6 45.6879 112.568 45.8529 112.568 46.03V47.8251H112.156V44.458H112.534L112.539 44.4556Z" fill="white"/>
<path d="M115.94 43.1626V47.8226H115.528V43.1626H115.94Z" fill="white"/>
<path d="M120.622 47.8251V47.1847H120.61C120.566 47.2938 120.503 47.3933 120.418 47.4855C120.333 47.5777 120.236 47.6553 120.127 47.7184C120.018 47.7814 119.901 47.8299 119.778 47.8663C119.654 47.9003 119.53 47.9173 119.409 47.9173C119.152 47.9173 118.929 47.8712 118.739 47.7766C118.55 47.6844 118.393 47.5558 118.266 47.3909C118.14 47.2283 118.046 47.0391 117.985 46.8232C117.924 46.6073 117.893 46.3793 117.893 46.1416C117.893 45.9038 117.922 45.6758 117.985 45.4599C118.046 45.244 118.14 45.0548 118.266 44.8923C118.393 44.7297 118.55 44.5987 118.739 44.5041C118.929 44.4095 119.152 44.361 119.409 44.361C119.535 44.361 119.659 44.3756 119.778 44.4071C119.897 44.4362 120.011 44.4847 120.112 44.5478C120.217 44.6109 120.309 44.6885 120.389 44.7807C120.469 44.8729 120.532 44.9796 120.576 45.1009H120.588V43.1699H121V47.8299H120.622V47.8251ZM118.366 46.6607C118.407 46.8329 118.473 46.9858 118.562 47.1216C118.652 47.2574 118.766 47.3666 118.904 47.4515C119.043 47.5364 119.212 47.5777 119.407 47.5777C119.625 47.5777 119.809 47.5364 119.957 47.4515C120.108 47.3666 120.229 47.2574 120.324 47.1216C120.418 46.9858 120.484 46.8329 120.525 46.6607C120.566 46.4885 120.585 46.3162 120.585 46.1416C120.585 45.9669 120.566 45.7947 120.525 45.6224C120.484 45.4502 120.416 45.2974 120.324 45.1615C120.229 45.0257 120.108 44.9165 119.957 44.8316C119.807 44.7467 119.622 44.7055 119.407 44.7055C119.21 44.7055 119.043 44.7467 118.904 44.8316C118.766 44.9165 118.652 45.0257 118.562 45.1615C118.473 45.2974 118.407 45.4502 118.366 45.6224C118.325 45.7947 118.303 45.9669 118.303 46.1416C118.303 46.3162 118.322 46.4885 118.366 46.6607Z" fill="white"/>
<path d="M48.9358 6.79229C50.7673 6.21009 51.7764 4.25245 51.1942 2.42338C50.612 0.591889 48.6544 -0.417253 46.8253 0.164944C44.9938 0.747141 43.9847 2.70478 44.5669 4.53385C45.1491 6.36535 47.1067 7.37449 48.9358 6.79229Z" fill="white"/>
<path d="M56.3319 4.86376C57.1712 4.59692 57.6321 3.70179 57.3653 2.86245C57.0984 2.02312 56.2033 1.56221 55.364 1.82905C54.5246 2.09589 54.0637 2.99102 54.3306 3.83036C54.5974 4.66969 55.4925 5.1306 56.3319 4.86376Z" fill="white"/>
<path d="M54.2215 33.4909C47.6427 38.311 40.3021 42.6605 32.6462 46.1246C42.073 48.3369 51.5482 42.7648 54.2215 33.4909Z" fill="white"/>
<path d="M72.4661 7.3842C70.1397 3.6266 59.3836 6.40417 46.0295 12.8423C40.4477 9.54803 33.2794 9.35639 27.3579 12.9636C21.5845 16.4786 18.4722 22.7008 18.6541 29.0056C5.94278 37.969 -1.98966 46.2726 0.433737 50.1903C3.58245 55.2748 22.5815 49.7148 42.1506 37.9957C61.7173 26.2789 75.6148 12.4711 72.4637 7.3842H72.4661ZM22.0963 39.0945C20.3619 39.4608 19.1878 39.3759 18.7996 38.7452C18.3969 38.0927 18.887 36.9598 20.0805 35.5262C20.6554 36.8846 21.3298 38.032 22.0963 39.0945ZM54.8255 26.4512C54.7624 25.8884 54.6751 25.328 54.5587 24.7676C46.9392 31.167 33.4152 38.8714 24.8909 42.1608C25.4221 42.6217 25.9776 43.0438 26.5526 43.4368C17.8026 46.8111 10.8599 47.5825 9.14972 44.8195C7.43466 42.0492 11.5974 36.9914 18.8748 31.3368C19.0107 32.1834 19.2072 33.0276 19.4667 33.8596C14.7703 37.7555 12.2063 40.9309 13.0335 42.2699C15.8013 46.7432 48.0138 29.1317 57.0961 19.2804C59.2696 16.9225 60.3685 15.1881 59.7985 14.2663C58.9955 12.9709 55.1845 13.6622 49.7968 15.8042C49.2461 15.2366 48.6639 14.7126 48.055 14.2299C55.9414 10.9696 62.0084 9.93616 63.6167 12.5318C65.2832 15.222 61.5839 20.6074 54.8279 26.4487L54.8255 26.4512ZM51.0364 17.2209C52.5719 16.9662 53.6102 17.0996 53.9716 17.6842C54.3307 18.264 53.9765 19.2077 53.0474 20.4012C52.4943 19.2901 51.8418 18.2446 51.0364 17.2209Z" fill="white"/>
</g>
<defs>
<clipPath id="clip0_16349_263">
<rect width="121" height="52.0775" fill="white"/>
</clipPath>
</defs>
</svg>
